{"title":"Lady Gaga Presents The Monster Ball Tour at Madison Square Garde","uid":6499569,"size":2201078744,"categoryP":"video","categoryS":"music_videos","magnet":"?xt=urn:btih:10c2251419efbe7acee7fc6d9106fb7ffbdc384d&amp;dn=Lady+Gaga+Presents+The+Monster+Ball+Tour+at+Madison+Square+Garde&amp;tr=udp%3A%2F%2Ftracker.openbittorrent.com%3A80&amp;tr=udp%3A%2F%2Fopen.demonii.com%3A1337&amp;tr=udp%3A%2F%2Ftracker.coppersurfer.tk%3A6969&amp;tr=udp%3A%2F%2Fexodus.desync.com%3A6969","seeders":2,"leechers":1,"uploader":"miguel1983","files":-1,"time":1309199255,"description":" &lt;a href=&quot;http://img51.imageshack.us/img51/7381/gagzwx.jpg&quot; rel=&quot;nofollow&quot; target=&quot;_NEW&quot;&gt;http://img51.imageshack.us/img51/7381/gagzwx.jpg&lt;/a&gt;\n\nCountry.......: USA\nGenre.........: Music, Musical, Pop\nDate release..: 07.05.2011 [World]\nDirector......: Laurieann Gibson\nWriters.......: Laurieann Gibson\nDuration......: 114 min.\nMore..........: http://www.imdb.com/title/tt1843961\nTrailer.......: http://www.imdb.com/video/imdb/vi4029193497\nTrailer.......:\n\nPilot :\nA live concert performance of Grammy-winning pop sensation Lady Gaga at Madison Square Garden in New York City. \nTracklist:\n01. Jumping Film\n02. Dance In the Dark\n03. Glitter and Grease\n04. Just Dance\n05. Beautiful, Dirty, Rich\n06. The Fame\n07. Puke Film\n08. LoveGame\n09. Boys Boys Boys\n10. Money Honey\n11. Telephone\n12. You and I\n13. Twister Film\n14. So Happy I Could Die\n15. Antler Film\n16. Monster\n17. Teeth\n18. Alejandro\n19. Monster Film (Manifesto of Little Monsters)\n20. Poker Face\n21. Apocalyptic Film\n22. Battling a Paparazzo (Paparazzi)\nEncore:\n23. Bad Romance\n24. Born This Way\n25. Fan Film\n\nCats :\nLady Gaga   \t ...  \tHerself \n\nData Technical :\n!!! SAMPLE !!!\nAudio.....: English\nSubtitles.: None\nFormat                           : AVI\nFormat/Info                      : Audio Video Interleave\nFormat profile                   : OpenDML\nFile size                        : 2.04 GiB\nDuration                         : 1h 54mn\nOverall bit rate                 : 2 552 Kbps\nWriting application              : VirtualDubMod 1.5.10.2 (build 2540/release)\nWriting library                  : VirtualDubMod build 2540/release\nVideo\nID                               : 0\nFormat                           : MPEG-4 Visual\nFormat profile                   : Advanced Simple@L5\nFormat settings, BVOP            : Yes\nFormat settings, QPel            : No\nFormat settings, GMC             : No warppoints\nFormat settings, Matrix          : Custom\nMuxing mode                      : Packed bitstream\nCodec ID                         : XVID\nCodec ID/Hint                    : XviD\nDuration                         : 1h 54mn\nBit rate                         : 2 153 Kbps\nWidth                            : 720 pixels\nHeight                           : 408 pixels\nDisplay aspect ratio             : 16:9\nFrame rate                       : 29.970 fps\nColor space                      : YUV\nChroma subsampling               : 4:2:0\nBit depth                        : 8 bits\nScan type                        : Progressive\nBits/(Pixel*Frame)               : 0.245\nStream size                      : 1.72 GiB (84%)\nWriting library                  : XviD 1.2.1 (UTC 2008-12-04)\nAudio\nID                               : 1\nFormat                           : AC-3\nFormat/Info                      : Audio Coding 3\nMode extension                   : CM (complete main)\nCodec ID                         : 2000\nDuration                         : 1h 54mn\nBit rate mode                    : Constant\nBit rate                         : 384 Kbps\nChannel(s)                       : 6 channels\nChannel positions                : Front: L C R, Side: L R, LFE\nSampling rate                    : 48.0 KHz\nBit depth                        : 16 bits\nStream size                      : 314 MiB (15%)\nAlignment                        : Split accross interleaves\nInterleave, duration             : 33 ms (1.00 video frame)\nInterleave, preload duration     : 500 ms\n\nScreen : &lt;a href=&quot;\nhttp://img857.imageshack.us/img857/8365/ladygagapresentsthemons.jpg&quot; rel=&quot;nofollow&quot; target=&quot;_NEW&quot;&gt;\nhttp://img857.imageshack.us/img857/8365/ladygagapresentsthemons.jpg&lt;/a&gt; &lt;a href=&quot;\nhttp://img220.imageshack.us/img220/6943/ladygagapresentsthemonsv.jpg&quot; rel=&quot;nofollow&quot; target=&quot;_NEW&quot;&gt;\nhttp://img220.imageshack.us/img220/6943/ladygagapresentsthemonsv.jpg&lt;/a&gt; &lt;a href=&quot;\nhttp://img718.imageshack.us/img718/8365/ladygagapresentsthemons.jpg&quot; rel=&quot;nofollow&quot; target=&quot;_NEW&quot;&gt;\nhttp://img718.imageshack.us/img718/8365/ladygagapresentsthemons.jpg&lt;/a&gt; &lt;a href=&quot;\nhttp://img864.imageshack.us/img864/1741/ladygagapresentsthemonsh.jpg&quot; rel=&quot;nofollow&quot; target=&quot;_NEW&quot;&gt;\nhttp://img864.imageshack.us/img864/1741/ladygagapresentsthemonsh.jpg&lt;/a&gt; &lt;a href=&quot;\nhttp://img148.imageshack.us/img148/8365/ladygagapresentsthemons.jpg&quot; rel=&quot;nofollow&quot; target=&quot;_NEW&quot;&gt;\nhttp://img148.imageshack.us/img148/8365/ladygagapresentsthemons.jpg&lt;/a&gt;","torrent":{"xt":"urn:btih:10c2251419efbe7acee7fc6d9106fb7ffbdc384d","amp;dn":"Lady+Gaga+Presents+The+Monster+Ball+Tour+at+Madison+Square+Garde","amp;tr":["udp%3A%2F%2Ftracker.openbittorrent.com%3A80","udp%3A%2F%2Fopen.demonii.com%3A1337","udp%3A%2F%2Ftracker.coppersurfer.tk%3A6969","udp%3A%2F%2Fexodus.desync.com%3A6969"],"infoHash":"10c2251419efbe7acee7fc6d9106fb7ffbdc384d","infoHashBuffer":{"type":"Buffer","data":[16,194,37,20,25,239,190,122,206,231,252,109,145,6,251,127,251,220,56,77]},"announce":[],"urlList":[]}}